<?xml version="1.0" encoding="UTF-8" standalone="no"?>
<!-- Created with Inkscape (http://www.inkscape.org/) -->

<svg
   width="260.95633mm"
   height="136.79703mm"
   viewBox="0 0 260.95633 136.79703"
   version="1.1"
   id="svg5"
   xml:space="preserve"
   inkscape:export-filename="favicon2.svg"
   inkscape:export-xdpi="96"
   inkscape:export-ydpi="96"
   xmlns:inkscape="http://www.inkscape.org/namespaces/inkscape"
   xmlns:sodipodi="http://sodipodi.sourceforge.net/DTD/sodipodi-0.dtd"
   xmlns="http://www.w3.org/2000/svg"
   xmlns:svg="http://www.w3.org/2000/svg"><sodipodi:namedview
     id="namedview7"
     pagecolor="#ffffff"
     bordercolor="#000000"
     borderopacity="0.25"
     inkscape:showpageshadow="2"
     inkscape:pageopacity="0.0"
     inkscape:pagecheckerboard="0"
     inkscape:deskcolor="#d1d1d1"
     inkscape:document-units="mm"
     showgrid="false" /><defs
     id="defs2" /><g
     inkscape:label="Camada 1"
     inkscape:groupmode="layer"
     id="layer1"
     style="display:inline"
     transform="translate(-169.08213,400.51467)"><g
       id="g1504"
       style="display:inline"><path
         id="rect1465"
         style="display:none;fill:#ffffff;fill-rule:evenodd;stroke:none;stroke-width:0.264583"
         d="m 183.88867,-406.30859 c -8.97684,0.39619 -17.28861,7.03257 -19.63047,15.71432 -2.11771,7.31931 -0.18363,15.74678 5.15977,21.22904 -4.17004,2.58227 -6.49752,7.62102 -6.14479,12.46601 0.0311,6.2042 -0.1274,12.41411 0.1184,18.61433 0.21561,2.36753 1.12834,4.65208 2.53225,6.56419 -2.36407,3.14882 -2.9332,7.25468 -2.66298,11.09101 0.0592,5.84247 -0.17996,11.70077 0.22489,17.53141 0.34835,2.07754 1.18853,4.07569 2.43809,5.77211 -2.37882,3.17001 -2.9357,7.30477 -2.66078,11.16328 0.0625,5.885 -0.18534,11.78528 0.2396,17.65848 0.89211,5.09628 5.03578,9.71313 10.27253,10.42945 3.5933,0.39655 7.21326,0.0595 10.81817,0.17346 4.40082,-0.0411 8.82111,0.16105 13.20604,-0.25805 4.16803,-0.84878 7.57805,-4.14458 9.05217,-8.06897 1.6161,4.36442 5.70084,7.97571 10.46105,8.23791 3.49563,0.24964 7.00205,-0.01 10.50223,0.0935 4.19682,-0.0402 8.41158,0.13672 12.59399,-0.24061 5.8253,-1.13434 10.11298,-6.91898 9.99313,-12.77376 0.10341,-4.23356 -0.0214,-8.46925 0.0355,-12.70373 -0.0221,-2.95685 0.10179,-5.94916 -0.41211,-8.8711 -0.28678,-0.61632 -0.18703,-0.80131 0.4239,-0.551 2.89963,0.58255 5.87004,0.17208 8.80188,0.27672 5.16061,-0.0226 10.3329,0.10194 15.48476,-0.19262 5.83878,-1.01893 10.24175,-6.72178 10.2121,-12.57283 0.12404,-4.23553 -0.0208,-8.47361 0.042,-12.71027 -0.0177,-3.02972 0.10627,-6.09163 -0.38849,-9.08984 -1.1415,-4.85127 -5.23988,-9.12436 -10.29693,-9.7289 -3.80361,-0.34788 -7.62617,-0.0464 -11.43822,-0.15125 -4.12764,0.0437 -8.27616,-0.15007 -12.38737,0.25425 -0.68365,0.32545 -0.18942,-0.53777 -0.2215,-0.92154 0.42895,-3.25282 0.0637,-6.5405 0.17811,-9.80881 -0.0207,-4.25205 0.11236,-8.51842 -0.23901,-12.75849 0.0433,-0.29274 -0.41987,-1.06796 -0.0541,-0.98878 3.01054,0.67106 6.11058,0.22209 9.16289,0.33789 5.13917,-0.0325 10.2904,0.10718 15.42067,-0.19359 5.84671,-1.01387 10.263,-6.72596 10.22056,-12.58667 0.12678,-4.00586 -0.0196,-8.01464 0.041,-12.02168 -0.0196,-3.25407 0.13527,-6.5421 -0.38611,-9.76446 -1.14916,-4.89379 -5.31894,-9.19406 -10.42782,-9.74409 -3.76272,-0.32395 -7.54215,-0.037 -11.31241,-0.13746 -4.03096,0.0169 -8.07406,-0.0873 -12.09536,0.20169 -1.92538,0.34556 -3.74225,1.21647 -5.26792,2.43376 -2.60446,-2.13237 -6.09067,-2.90862 -9.39805,-2.6364 -6.58046,0.0439 -13.16909,-0.12729 -19.74334,0.17558 -5.89731,0.96324 -10.36487,6.71029 -10.3269,12.60631 -0.0395,0.93333 -0.0614,1.86759 -0.0551,2.80178 -1.85102,-7.27848 -7.66762,-13.44025 -14.91076,-15.51409 -2.32698,-0.65655 -4.75849,-0.93953 -7.17518,-0.83747 z m 22.08985,28.90429 c 0.0648,2.21724 -0.0193,4.47531 0.47457,6.64894 0.43958,1.66003 1.17149,3.25092 2.20121,4.62841 -0.77298,1.0277 -1.36807,2.18481 -1.79492,3.39648 -1.06625,-2.91537 -3.16467,-5.46529 -5.88868,-6.97461 2.4396,-2.68985 4.14842,-6.01425 5.01368,-9.53515 -0.002,0.61197 -0.004,1.22395 -0.006,1.83593 z m 165.2539,0.57032 c -12.01107,10e-4 -24.02213,0.003 -36.0332,0.004 0,39.64714 0,79.29427 0,118.94141 14.57256,-0.10884 29.15267,0.23301 43.71926,-0.2888 11.02359,-0.73245 22.14388,-3.32508 31.67011,-9.09093 11.94266,-7.15386 20.49821,-19.53666 23.29627,-33.14245 2.49353,-10.80597 2.52384,-22.12189 0.54992,-33.01324 -2.07893,-10.48657 -7.0486,-20.56427 -14.91397,-27.91385 -8.06806,-7.69587 -18.66089,-12.45745 -29.61121,-14.22614 -6.16036,-1.07396 -12.43247,-1.34019 -18.67718,-1.2699 z m -85.78711,0.5332 c 0,39.46875 0,78.9375 0,118.40625 11.4642,0 22.92839,0 34.39258,0 0,-39.64518 0,-79.29037 0,-118.93555 -11.46419,0 -22.92838,0 -34.39258,0 0,0.17643 0,0.35287 0,0.5293 z m 90.36524,29.75586 c 5.47942,0.0384 11.25466,0.893 15.80859,4.16211 4.28653,3.05949 6.67853,8.08806 7.80499,13.11042 1.16961,5.40385 1.38246,11.10005 0.9124,16.6298 -0.46753,6.05809 -2.05539,12.42589 -6.21066,17.08486 -3.67367,4.20377 -9.22959,6.1958 -14.64445,6.85705 -3.28191,0.40833 -6.57515,0.37917 -9.89353,0.37646 0.002,-19.4069 0.004,-38.8138 0.006,-58.2207 2.07227,0 4.14453,0 6.2168,0 z m -168.82032,11.83203 c 0.43535,1.05481 0.98055,2.06696 1.65821,2.98633 -0.77942,1.02896 -1.36292,2.19891 -1.79102,3.41406 -0.4354,-1.21205 -1.04519,-2.3629 -1.80859,-3.40039 0.77051,-1.03118 1.36535,-2.19073 1.79101,-3.4043 0.0501,0.13477 0.10026,0.26953 0.15039,0.4043 z m 0.004,34.4043 c 0.43357,1.05384 0.97895,2.06436 1.65625,2.98242 -0.77841,1.02765 -1.37093,2.19062 -1.79492,3.40625 -0.43434,-1.20871 -1.04424,-2.35731 -1.81055,-3.38867 0.77675,-1.03152 1.36651,-2.19793 1.79492,-3.41407 0.0514,0.13802 0.10287,0.27605 0.1543,0.41407 z" /><g
         inkscape:label="Layer 1"
         id="layer1-3"
         transform="matrix(0.26458333,0,0,0.26458333,169.08214,-542.15515)"
         inkscape:export-filename="favicon.svg"
         inkscape:export-xdpi="96"
         inkscape:export-ydpi="96"><rect
           style="fill:#71c837;fill-rule:evenodd;stroke:none"
           id="rect2816-4-4-5-1-7"
           width="124"
           height="124"
           x="161.47812"
           y="538.33813"
           ry="28.10984"
           rx="24.596111" /><rect
           style="fill:#71c837;fill-rule:evenodd"
           id="rect2816-4-4-5-1-7-4"
           width="124"
           height="124"
           x="161.47812"
           y="668.34613"
           ry="28.10984"
           rx="24.596111" /><rect
           style="fill:#71c837;fill-rule:evenodd"
           id="rect2816-4-4-5-1-7-3"
           width="124"
           height="124"
           x="161.47812"
           y="798.35419"
           ry="28.10984"
           rx="24.596111" /><rect
           style="fill:#71c837;fill-rule:evenodd"
           id="rect2816-4-4-5-1-7-1"
           width="124"
           height="124"
           x="161.47812"
           y="928.36218"
           ry="28.10984"
           rx="24.596111" /><rect
           style="fill:#71c837;fill-rule:evenodd;stroke:none"
           id="rect2816-4-4-5-1-7-8"
           width="124"
           height="124"
           x="292.08453"
           y="538.33813"
           ry="28.10984"
           rx="24.596111" /><rect
           style="fill:#71c837;fill-rule:evenodd"
           id="rect2816-4-4-5-1-7-4-9"
           width="124"
           height="124"
           x="0"
           y="668.34613"
           ry="28.10984"
           rx="24.596111" /><rect
           style="fill:#71c837;fill-rule:evenodd"
           id="rect2816-4-4-5-1-7-3-2"
           width="124"
           height="124"
           x="0"
           y="798.35419"
           ry="28.10984"
           rx="24.596111" /><rect
           style="fill:#71c837;fill-rule:evenodd"
           id="rect2816-4-4-5-1-7-1-7"
           width="124"
           height="124"
           x="0"
           y="928.36218"
           ry="28.10984"
           rx="24.596111" /><rect
           style="fill:#71c837;fill-rule:evenodd"
           id="rect2816-4-4-5-1-7-8-2"
           width="124"
           height="124"
           x="292.08453"
           y="796.59729"
           ry="28.10984"
           rx="24.596111" /><ellipse
           style="fill:#d40000"
           id="path3184"
           transform="translate(-90.847257,349.10644)"
           cx="151.09039"
           cy="246.83954"
           rx="59.733414"
           ry="60.611847" /></g><text
         xml:space="preserve"
         style="font-size:150.293px;fill:#ffffff;stroke-width:12.5245"
         x="277.76407"
         y="-263.71765"
         id="text1090"><tspan
           sodipodi:role="line"
           id="tspan1088"
           style="font-style:normal;font-variant:normal;font-weight:bold;font-stretch:normal;font-family:'Open Sans';-inkscape-font-specification:'Open Sans Bold';fill:#ffffff;stroke-width:12.5245"
           x="277.76407"
           y="-263.71765">ID</tspan></text></g></g></svg>
